<svg width="409" height="409" viewBox="0 0 409 409" fill="none" xmlns="http://www.w3.org/2000/svg">
<path d="M21.7157 232.434C6.09476 216.813 6.09476 191.486 21.7157 175.865L175.865 21.7157C191.486 6.09476 216.813 6.09476 232.434 21.7157L386.583 175.865C402.204 191.486 402.204 216.813 386.583 232.434L232.434 386.583C216.813 402.204 191.486 402.204 175.865 386.583L21.7157 232.434Z" stroke="#FF8201" stroke-width="20"/>
<g filter="url(#filter0_d_48_53)">
<path d="M78.8408 158.311C83.7162 155.702 88.4885 154.397 93.1578 154.397C97.8958 154.397 102.222 155.393 106.136 157.384C113.964 161.436 120.659 168.062 126.221 177.263L144.658 207.236L175.249 161.607H176.176L187.815 221.862C190.149 234.222 193.617 242.806 198.218 247.612C201.857 251.389 206.492 253.277 212.123 253.277C212.604 253.277 213.118 253.277 213.668 253.277V254.307C209.41 256.093 204.981 256.985 200.381 256.985C191.248 256.985 183.317 253.415 176.588 246.273C170.957 240.368 167.009 232.025 164.743 221.244L160.005 199.511L142.392 225.673C141.224 227.321 140.194 229.313 139.302 231.647C138.409 233.982 137.997 235.973 138.066 237.621H137.139L112.11 194.773L106.96 229.381V229.793C106.96 230.892 107.337 231.922 108.093 232.883C108.917 233.776 109.878 234.222 110.977 234.222H112.522V235.149H89.9648V234.119H91.6128C93.4668 234.119 95.0805 233.57 96.4538 232.471C97.8958 231.304 98.7885 229.759 99.1318 227.836L106.239 183.649C102.737 177.538 98.8572 172.113 94.5998 167.375C89.7245 162.019 84.8492 159.341 79.9738 159.341C79.6992 159.341 79.4245 159.341 79.1498 159.341L78.8408 158.311Z" fill="#FF8201"/>
<path d="M287.021 248.848C295.604 248.848 301.544 247.372 304.84 244.419L305.664 245.14C302.642 251.664 298.316 256.505 292.686 259.663C289.184 261.586 284.034 262.547 277.236 262.547C276.549 262.547 275.347 262.513 273.631 262.444C271.983 262.376 269.27 261.792 265.494 260.693C261.786 259.663 258.661 258.702 256.121 257.809C253.58 256.985 250.387 255.681 246.542 253.895C241.735 251.629 237.134 249.329 232.74 246.994C228.345 244.728 225.118 243.08 223.058 242.05C221.066 241.02 218.972 240.025 216.775 239.063C214.577 238.171 211.556 237.278 207.711 236.385C203.865 235.561 199.951 235.149 195.969 235.149V234.119H197.308C199.78 234.119 201.668 233.055 202.973 230.926C203.522 229.965 203.831 228.866 203.9 227.63V170.568C203.831 168.028 202.698 166.139 200.501 164.903C199.539 164.354 198.475 164.079 197.308 164.079H195.969V163.049H232.946V164.079H232.019C230.027 164.079 228.379 164.697 227.075 165.933C225.77 167.169 225.083 168.714 225.015 170.568V230.514C225.015 233.742 226.319 235.767 228.929 236.591C255.503 244.763 274.867 248.848 287.021 248.848Z" fill="#FF8201"/>
<path d="M238.437 189.417C234.248 185.709 232.154 181.727 232.154 177.469C232.154 173.487 233.768 170.122 236.995 167.375C240.428 164.423 244.892 162.946 250.385 162.946H303.018C305.147 162.946 307.447 162.74 309.919 162.328C312.391 161.916 314.142 161.504 315.172 161.092V182.31L314.142 182.207V181.486C314.142 175.924 312.082 172.01 307.962 169.744C305.971 168.714 303.602 168.165 300.855 168.096H290.761V227.733C290.83 229.519 291.482 231.029 292.718 232.265C294.023 233.501 295.568 234.119 297.353 234.119H298.692V235.149H261.715V234.119H263.054C264.839 234.119 266.35 233.501 267.586 232.265C268.891 231.029 269.577 229.553 269.646 227.836V168.096H250.385C246.54 168.096 243.347 169.023 240.806 170.877C237.853 173.006 236.377 175.684 236.377 178.911C236.377 182.07 237.441 185.4 239.57 188.902L238.437 189.417Z" fill="#FF8201"/>
</g>
<defs>
<filter id="filter0_d_48_53" x="74.8408" y="154.397" width="244.331" height="116.15" filterUnits="userSpaceOnUse" color-interpolation-filters="sRGB">
<feFlood flood-opacity="0" result="BackgroundImageFix"/>
<feColorMatrix in="SourceAlpha" type="matrix" values="0 0 0 0 0 0 0 0 0 0 0 0 0 0 0 0 0 0 127 0" result="hardAlpha"/>
<feOffset dy="4"/>
<feGaussianBlur stdDeviation="2"/>
<feComposite in2="hardAlpha" operator="out"/>
<feColorMatrix type="matrix" values="0 0 0 0 0 0 0 0 0 0 0 0 0 0 0 0 0 0 0.25 0"/>
<feBlend mode="normal" in2="BackgroundImageFix" result="effect1_dropShadow_48_53"/>
<feBlend mode="normal" in="SourceGraphic" in2="effect1_dropShadow_48_53" result="shape"/>
</filter>
</defs>
</svg>
